<?xml version="1.0" standalone="no"?><!DOCTYPE svg PUBLIC "-//W3C//DTD SVG 1.1//EN" "http://www.w3.org/Graphics/SVG/1.1/DTD/svg11.dtd"><svg class="icon" width="200px" height="200.00px" viewBox="0 0 1024 1024" version="1.1" xmlns="http://www.w3.org/2000/svg"><path fill="#333333" d="M640.256 448 512 448 383.744 448C242.944 448 128 562.624 128 704l0 64 0 192 128 0 0-192 0-64.576C256 686.08 270.848 672 288 672c17.664 0 32 14.592 32 31.424L320 768l0 192 384 0 0-192 0-64.576c0-17.344 14.848-31.424 32-31.424 17.664 0 32 14.592 32 31.424L768 768l0 192 128 0 0-192 0-64C896 562.88 781.504 448 640.256 448zM704 256c0-49.408-19.2-93.952-49.856-128C619.008 89.024 568.64 64 512 64S404.992 89.024 369.856 128C339.2 162.048 320 206.592 320 256c0 106.048 86.016 192 192 192S704 362.048 704 256z" /></svg>